<svg width="47" height="16" viewBox="0 0 47 16" fill="none" xmlns="http://www.w3.org/2000/svg">
<path d="M42.1836 3.60657C42.7243 3.93251 42.912 4.65622 42.5732 5.20377C40.6323 8.34045 38.003 10.9567 34.8972 12.8311C31.4646 14.9028 27.5706 15.9957 23.6059 16C19.6411 16.0043 15.7449 14.92 12.3082 12.8558C9.19858 10.9882 6.56409 8.3777 4.61692 5.24527C4.27702 4.69846 4.46322 3.97434 5.00326 3.64722C5.54331 3.3201 6.23247 3.51411 6.57527 4.05894C8.32149 6.83421 10.6697 9.14837 13.4356 10.8096C16.5286 12.6674 20.0352 13.6432 23.6035 13.6393C27.1718 13.6354 30.6764 12.6519 33.7657 10.7874C36.5282 9.1201 38.8718 6.80081 40.6124 4.02172C40.9542 3.47615 41.6429 3.28063 42.1836 3.60657Z" fill="white"/>
<path d="M10.9283 4.02185C11.4089 3.73213 11.579 3.08419 11.2328 2.63131C10.7135 1.95188 10.0754 1.37703 9.34954 0.938921C8.33248 0.325088 7.1787 0.00128822 6.00395 3.83593e-06C4.82919 -0.00128055 3.67477 0.319995 2.65648 0.931603C1.9297 1.36812 1.29052 1.94158 0.76978 2.61987C0.422676 3.072 0.591487 3.7203 1.07153 4.01108C1.55157 4.30185 2.1597 4.12108 2.5339 3.69317C2.85867 3.3218 3.23765 3.00332 3.65862 2.75048C4.37142 2.32236 5.17951 2.09746 6.00184 2.09836C6.82417 2.09926 7.63181 2.32592 8.34376 2.7556C8.76421 3.00936 9.14256 3.32867 9.46658 3.70075C9.83992 4.12947 10.4477 4.31158 10.9283 4.02185Z" fill="white"/>
<path d="M46.0986 4.02185C46.5793 3.73213 46.7494 3.08419 46.4032 2.63131C45.8838 1.95188 45.2458 1.37703 44.5199 0.938921C43.5028 0.325088 42.349 0.00128822 41.1743 3.83593e-06C39.9995 -0.00128055 38.8451 0.319995 37.8268 0.931603C37.1 1.36812 36.4609 1.94158 35.9401 2.61987C35.593 3.072 35.7618 3.7203 36.2419 4.01108C36.7219 4.30185 37.33 4.12108 37.7042 3.69317C38.029 3.3218 38.408 3.00332 38.829 2.75048C39.5418 2.32236 40.3498 2.09746 41.1722 2.09836C41.9945 2.09926 42.8022 2.32592 43.5141 2.7556C43.9345 3.00936 44.3129 3.32867 44.6369 3.70075C45.0103 4.12947 45.618 4.31158 46.0986 4.02185Z" fill="white"/>
</svg>
